<svg width="17" height="17" viewBox="0 0 17 17" fill="none" xmlns="http://www.w3.org/2000/svg">
<path d="M6.5071 7.89366C6.3471 7.73366 6.13009 7.64377 5.90381 7.64377C5.67753 7.64377 5.46052 7.73366 5.30052 7.89366C5.14052 8.05366 5.05063 8.27067 5.05063 8.49695C5.05063 8.72323 5.14052 8.94024 5.30052 9.10024L7.84964 11.6494C7.92904 11.7281 8.0232 11.7904 8.12672 11.8327C8.23025 11.875 8.34111 11.8964 8.45293 11.8958C8.56926 11.8921 8.68358 11.8645 8.78882 11.8148C8.89406 11.7652 8.98797 11.6944 9.06472 11.6069L15.0127 4.80922C15.15 4.63871 15.2162 4.42177 15.1975 4.20362C15.1788 3.98548 15.0766 3.78298 14.9123 3.63833C14.7479 3.49369 14.534 3.41808 14.3153 3.42726C14.0965 3.43644 13.8898 3.52971 13.7381 3.68761L8.45293 9.8055L6.5071 7.89366Z" fill="black" fill-opacity="0.5"/>
<path d="M16.1003 7.64736C15.8749 7.64736 15.6588 7.73688 15.4995 7.89623C15.3401 8.05558 15.2506 8.27171 15.2506 8.49707C15.2506 10.2999 14.5344 12.0289 13.2596 13.3037C11.9848 14.5785 10.2558 15.2947 8.45293 15.2947C7.11047 15.2941 5.79825 14.896 4.68173 14.1506C3.56521 13.4052 2.6944 12.3459 2.1791 11.1063C1.66381 9.8667 1.52709 8.50225 1.78621 7.18503C2.04532 5.86781 2.68866 4.65681 3.63509 3.70472C4.26447 3.06692 5.01474 2.56105 5.842 2.21673C6.66926 1.8724 7.55688 1.69653 8.45293 1.69941C8.99628 1.70282 9.53763 1.7655 10.0674 1.88635C10.1782 1.92064 10.2949 1.93186 10.4103 1.91932C10.5257 1.90677 10.6372 1.87074 10.7381 1.81343C10.839 1.75611 10.9271 1.67874 10.997 1.58608C11.0668 1.49342 11.117 1.38743 11.1443 1.27466C11.1716 1.16188 11.1755 1.0447 11.1558 0.930344C11.1361 0.815988 11.0932 0.706878 11.0297 0.609742C10.9663 0.512606 10.8836 0.429502 10.7867 0.365553C10.6899 0.301605 10.581 0.258167 10.4667 0.237918C9.80664 0.0826278 9.13104 0.00281034 8.45293 0C6.7742 0.00872099 5.13566 0.514515 3.74411 1.45355C2.35255 2.39259 1.27033 3.72279 0.63403 5.27628C-0.00227509 6.82977 -0.164152 8.53694 0.168828 10.1823C0.501808 11.8277 1.31472 13.3376 2.50498 14.5215C4.08263 16.0998 6.22131 16.9889 8.45293 16.9941C10.7065 16.9941 12.8678 16.0989 14.4613 14.5054C16.0548 12.9119 16.95 10.7506 16.95 8.49707C16.95 8.27171 16.8605 8.05558 16.7011 7.89623C16.5418 7.73688 16.3257 7.64736 16.1003 7.64736Z" fill="black" fill-opacity="0.5"/>
</svg>
