<svg width="86" height="25" viewBox="0 0 86 25" fill="none" xmlns="http://www.w3.org/2000/svg">
<path d="M0.56 24V0.959999H4.912V19.936H14.832V24H0.56ZM26.8155 24.48C24.5115 24.48 22.5222 23.9787 20.8475 22.976C19.1835 21.9733 17.8982 20.5707 16.9915 18.768C16.0955 16.9653 15.6475 14.8693 15.6475 12.48C15.6475 10.0907 16.0955 7.99467 16.9915 6.192C17.8982 4.38933 19.1835 2.98667 20.8475 1.984C22.5222 0.981333 24.5115 0.48 26.8155 0.48C29.1195 0.48 31.1035 0.981333 32.7675 1.984C34.4422 2.98667 35.7275 4.38933 36.6235 6.192C37.5302 7.99467 37.9835 10.0907 37.9835 12.48C37.9835 14.8693 37.5302 16.9653 36.6235 18.768C35.7275 20.5707 34.4422 21.9733 32.7675 22.976C31.1035 23.9787 29.1195 24.48 26.8155 24.48ZM26.8155 20.384C28.2768 20.4053 29.4928 20.0907 30.4635 19.44C31.4342 18.7893 32.1595 17.8667 32.6395 16.672C33.1302 15.4773 33.3755 14.08 33.3755 12.48C33.3755 10.88 33.1302 9.49333 32.6395 8.32C32.1595 7.14667 31.4342 6.23467 30.4635 5.584C29.4928 4.93333 28.2768 4.59733 26.8155 4.576C25.3542 4.55467 24.1382 4.86933 23.1675 5.52C22.1968 6.17067 21.4662 7.09333 20.9755 8.288C20.4955 9.48267 20.2555 10.88 20.2555 12.48C20.2555 14.08 20.4955 15.4667 20.9755 16.64C21.4662 17.8133 22.1968 18.7253 23.1675 19.376C24.1382 20.0267 25.3542 20.3627 26.8155 20.384ZM50.7775 24.48C49.3268 24.48 47.9455 24.224 46.6335 23.712C45.3215 23.1893 44.1588 22.4213 43.1455 21.408C42.1428 20.3947 41.3482 19.1413 40.7615 17.648C40.1855 16.1547 39.8975 14.432 39.8975 12.48C39.8975 9.93067 40.3828 7.76533 41.3535 5.984C42.3348 4.192 43.6468 2.82667 45.2895 1.888C46.9428 0.949333 48.7722 0.48 50.7775 0.48C53.7428 0.48 56.0735 1.168 57.7695 2.544C59.4655 3.92 60.6015 5.86667 61.1775 8.384L56.7295 9.024C56.3135 7.68 55.6308 6.608 54.6815 5.808C53.7428 4.99733 52.5375 4.58667 51.0655 4.576C49.6042 4.55467 48.3882 4.86933 47.4175 5.52C46.4468 6.17067 45.7162 7.09333 45.2255 8.288C44.7455 9.48267 44.5055 10.88 44.5055 12.48C44.5055 14.08 44.7455 15.4667 45.2255 16.64C45.7162 17.8133 46.4468 18.7253 47.4175 19.376C48.3882 20.0267 49.6042 20.3627 51.0655 20.384C52.0575 20.4053 52.9535 20.2347 53.7535 19.872C54.5642 19.5093 55.2468 18.9387 55.8015 18.16C56.3562 17.3813 56.7508 16.384 56.9855 15.168H53.3375V11.808H61.6255C61.6468 11.9467 61.6628 12.192 61.6735 12.544C61.6842 12.896 61.6895 13.0987 61.6895 13.152C61.6895 15.36 61.2415 17.3173 60.3455 19.024C59.4495 20.7307 58.1855 22.0693 56.5535 23.04C54.9215 24 52.9962 24.48 50.7775 24.48ZM74.7843 24.48C72.4803 24.48 70.4909 23.9787 68.8163 22.976C67.1523 21.9733 65.8669 20.5707 64.9603 18.768C64.0643 16.9653 63.6163 14.8693 63.6163 12.48C63.6163 10.0907 64.0643 7.99467 64.9603 6.192C65.8669 4.38933 67.1523 2.98667 68.8163 1.984C70.4909 0.981333 72.4803 0.48 74.7843 0.48C77.0883 0.48 79.0723 0.981333 80.7362 1.984C82.4109 2.98667 83.6963 4.38933 84.5923 6.192C85.4989 7.99467 85.9523 10.0907 85.9523 12.48C85.9523 14.8693 85.4989 16.9653 84.5923 18.768C83.6963 20.5707 82.4109 21.9733 80.7362 22.976C79.0723 23.9787 77.0883 24.48 74.7843 24.48ZM74.7843 20.384C76.2456 20.4053 77.4616 20.0907 78.4323 19.44C79.4029 18.7893 80.1283 17.8667 80.6083 16.672C81.0989 15.4773 81.3443 14.08 81.3443 12.48C81.3443 10.88 81.0989 9.49333 80.6083 8.32C80.1283 7.14667 79.4029 6.23467 78.4323 5.584C77.4616 4.93333 76.2456 4.59733 74.7843 4.576C73.3229 4.55467 72.1069 4.86933 71.1363 5.52C70.1656 6.17067 69.4349 7.09333 68.9443 8.288C68.4643 9.48267 68.2243 10.88 68.2243 12.48C68.2243 14.08 68.4643 15.4667 68.9443 16.64C69.4349 17.8133 70.1656 18.7253 71.1363 19.376C72.1069 20.0267 73.3229 20.3627 74.7843 20.384Z" fill="black" fill-opacity="0.5"/>
</svg>
